<svg width="18" height="18" viewBox="0 0 18 18" fill="none" xmlns="http://www.w3.org/2000/svg">
<path d="M5.3334 12H4.00008C3.91167 12 3.82689 11.9649 3.76438 11.9024C3.70187 11.8399 3.66675 11.7551 3.66675 11.6667C3.66675 11.5783 3.70187 11.4935 3.76438 11.431C3.82689 11.3685 3.91167 11.3334 4.00008 11.3334H5.3334C5.4218 11.3334 5.50659 11.3685 5.5691 11.431C5.63161 11.4935 5.66673 11.5783 5.66673 11.6667C5.66673 11.7551 5.63161 11.8399 5.5691 11.9024C5.50659 11.9649 5.4218 12 5.3334 12ZM16.1666 12H15.3333C15.2449 12 15.1601 11.9649 15.0976 11.9024C15.0351 11.8399 15 11.7551 15 11.6667C15 11.5783 15.0351 11.4935 15.0976 11.431C15.1601 11.3685 15.2449 11.3334 15.3333 11.3334H15.89L16.3393 8.93868C16.3333 7.71334 15.2866 6.66667 14 6.66667H11.8113L10.7507 11.3334H12.6667C12.7551 11.3334 12.8399 11.3685 12.9024 11.431C12.9649 11.4935 13 11.5783 13 11.6667C13 11.7551 12.9649 11.8399 12.9024 11.9024C12.8399 11.9649 12.7551 12 12.6667 12H10.3334C10.2833 12 10.234 11.9888 10.1889 11.9672C10.1438 11.9455 10.1041 11.914 10.0729 11.8749C10.0417 11.8359 10.0196 11.7903 10.0084 11.7415C9.99713 11.6928 9.99702 11.6421 10.008 11.5934L11.22 6.26C11.2367 6.18616 11.2779 6.12019 11.3371 6.07294C11.3962 6.02569 11.4696 5.99996 11.5453 6H14C15.654 6 17 7.34601 17 9.00001L16.494 11.728C16.4798 11.8045 16.4393 11.8735 16.3795 11.9232C16.3197 11.9729 16.2444 12.0001 16.1666 12Z" fill="#272727"/>
<path d="M13.9999 13.333C13.0812 13.333 12.3332 12.5857 12.3332 11.6664C12.3332 10.747 13.0812 9.99969 13.9999 9.99969C14.9185 9.99969 15.6665 10.747 15.6665 11.6664C15.6665 12.5857 14.9185 13.333 13.9999 13.333ZM13.9999 10.6664C13.4485 10.6664 12.9999 11.115 12.9999 11.6664C12.9999 12.2177 13.4485 12.6664 13.9999 12.6664C14.5512 12.6664 14.9999 12.2177 14.9999 11.6664C14.9999 11.115 14.5512 10.6664 13.9999 10.6664ZM6.66661 13.333C5.74795 13.333 4.99996 12.5857 4.99996 11.6664C4.99996 10.747 5.74795 9.99969 6.66661 9.99969C7.58527 9.99969 8.33326 10.747 8.33326 11.6664C8.33326 12.5857 7.58527 13.333 6.66661 13.333ZM6.66661 10.6664C6.11528 10.6664 5.66662 11.115 5.66662 11.6664C5.66662 12.2177 6.11528 12.6664 6.66661 12.6664C7.21794 12.6664 7.6666 12.2177 7.6666 11.6664C7.6666 11.115 7.21794 10.6664 6.66661 10.6664ZM5.33329 5.99968H2.66665C2.57825 5.99968 2.49346 5.96456 2.43095 5.90205C2.36844 5.83953 2.33332 5.75475 2.33332 5.66634C2.33332 5.57794 2.36844 5.49315 2.43095 5.43064C2.49346 5.36813 2.57825 5.33301 2.66665 5.33301H5.33329C5.4217 5.33301 5.50648 5.36813 5.56899 5.43064C5.6315 5.49315 5.66662 5.57794 5.66662 5.66634C5.66662 5.75475 5.6315 5.83953 5.56899 5.90205C5.50648 5.96456 5.4217 5.99968 5.33329 5.99968ZM5.33329 7.99969H1.99999C1.91159 7.99969 1.8268 7.96457 1.76429 7.90205C1.70178 7.83954 1.66666 7.75476 1.66666 7.66635C1.66666 7.57794 1.70178 7.49316 1.76429 7.43065C1.8268 7.36813 1.91159 7.33302 1.99999 7.33302H5.33329C5.4217 7.33302 5.50648 7.36813 5.56899 7.43065C5.6315 7.49316 5.66662 7.57794 5.66662 7.66635C5.66662 7.75476 5.6315 7.83954 5.56899 7.90205C5.50648 7.96457 5.4217 7.99969 5.33329 7.99969ZM5.33329 9.99969H1.33333C1.24493 9.99969 1.16014 9.96457 1.09763 9.90206C1.03512 9.83955 1 9.75476 1 9.66636C1 9.57795 1.03512 9.49317 1.09763 9.43066C1.16014 9.36814 1.24493 9.33302 1.33333 9.33302H5.33329C5.4217 9.33302 5.50648 9.36814 5.56899 9.43066C5.6315 9.49317 5.66662 9.57795 5.66662 9.66636C5.66662 9.75476 5.6315 9.83955 5.56899 9.90206C5.50648 9.96457 5.4217 9.99969 5.33329 9.99969Z" fill="#272727"/>
<path d="M10.3333 12H8.00004C7.91163 12 7.82685 11.9649 7.76434 11.9024C7.70183 11.8399 7.66671 11.7551 7.66671 11.6667C7.66671 11.5783 7.70183 11.4935 7.76434 11.431C7.82685 11.3685 7.91163 11.3334 8.00004 11.3334H10.0674L11.582 4.66667H4.00008C3.91167 4.66667 3.82689 4.63155 3.76438 4.56904C3.70187 4.50653 3.66675 4.42174 3.66675 4.33333C3.66675 4.24493 3.70187 4.16014 3.76438 4.09763C3.82689 4.03512 3.91167 4 4.00008 4H12C12.05 3.99998 12.0994 4.01121 12.1445 4.03286C12.1896 4.05452 12.2292 4.08604 12.2605 4.1251C12.2917 4.16416 12.3138 4.20975 12.325 4.25849C12.3362 4.30723 12.3363 4.35788 12.3253 4.40667L10.6587 11.74C10.642 11.8139 10.6007 11.8798 10.5416 11.9271C10.4825 11.9743 10.409 12.0001 10.3333 12Z" fill="#272727"/>
</svg>
